<svg width="48" height="35" viewBox="0 0 48 35" fill="none" xmlns="http://www.w3.org/2000/svg">
<path d="M42.3939 8.5357C41.1774 8.52341 40.0058 8.99355 39.1351 9.84309C38.2644 10.6926 37.7655 11.8523 37.7479 13.0687C37.751 13.7087 37.892 14.3406 38.1612 14.9212C38.4304 15.5019 38.8215 16.0178 39.3079 16.4337L33.4479 18.4889L25.1089 8.80573C26.0042 8.50699 26.784 7.93652 27.3397 7.17363C27.8953 6.41075 28.1992 5.49335 28.2089 4.54959C28.1837 3.33434 27.6832 2.17745 26.8149 1.32691C25.9465 0.47638 24.7794 0 23.5639 0C22.3484 0 21.1813 0.47638 20.3129 1.32691C19.4446 2.17745 18.9441 3.33434 18.9189 4.54959C18.9286 5.48399 19.2261 6.39278 19.7711 7.15191C20.316 7.91103 21.0817 8.48374 21.9639 8.79181L13.6119 18.4918L7.75396 16.4369C8.24003 16.0207 8.63075 15.5046 8.89959 14.9239C9.16843 14.3433 9.30908 13.7117 9.31194 13.0719C9.33498 12.1951 9.10938 11.3297 8.66131 10.5758C8.21324 9.82179 7.56095 9.20996 6.77984 8.8111C5.99873 8.41223 5.12072 8.24246 4.24724 8.32159C3.37377 8.40073 2.54051 8.72561 1.8438 9.25837C1.14709 9.79112 0.61538 10.5101 0.310108 11.3324C0.00483694 12.1546 -0.0615238 13.0463 0.118702 13.9046C0.298928 14.763 0.718349 15.5527 1.32854 16.1827C1.93873 16.8127 2.7148 17.2572 3.56695 17.4647V29.7558C3.5743 29.8378 3.59101 29.9186 3.61687 29.9968C3.58394 30.1235 3.56721 30.2541 3.56695 30.385C3.56695 34.797 21.4859 34.927 23.5289 34.927C25.5719 34.927 43.4909 34.798 43.4909 30.385C43.4902 30.2541 43.4733 30.1236 43.4409 29.9968C43.4685 29.9191 43.4854 29.8381 43.4909 29.7558V17.4647C44.5898 17.2245 45.5596 16.5829 46.2103 15.6654C46.861 14.7479 47.1458 13.6205 47.0091 12.504C46.8724 11.3875 46.3239 10.3621 45.471 9.62873C44.6182 8.89532 43.5223 8.50659 42.3979 8.53863L42.3939 8.5357ZM21.1749 4.55179C21.1633 4.07758 21.2935 3.61065 21.5485 3.21072C21.8036 2.81078 22.172 2.49593 22.6069 2.30641C23.0417 2.11689 23.5232 2.06133 23.9898 2.14674C24.4564 2.23215 24.887 2.45464 25.2265 2.78591C25.566 3.11717 25.7991 3.54202 25.8959 4.00638C25.9928 4.47073 25.9491 4.95348 25.7703 5.39286C25.5916 5.83224 25.2859 6.20836 24.8924 6.47319C24.4989 6.73802 24.0353 6.87955 23.561 6.87969C22.9362 6.8861 22.3343 6.64486 21.8871 6.20854C21.44 5.77222 21.1838 5.1765 21.1749 4.55179ZM13.5849 20.8278C13.8019 20.9027 14.0362 20.9115 14.2581 20.8527C14.48 20.7939 14.6794 20.6702 14.8309 20.4977L23.5309 10.3978L32.2309 20.4977C32.3821 20.6703 32.5813 20.794 32.803 20.8529C33.0248 20.9119 33.259 20.9035 33.4759 20.8288L41.234 18.1039V28.041C36.349 25.919 25.1249 25.8408 23.5339 25.8408C21.9429 25.8408 10.7149 25.92 5.83391 28.041V18.1039L13.5849 20.8278ZM23.5279 32.7168C14.8279 32.7168 9.27888 31.706 6.97088 30.855C6.6198 30.7375 6.28408 30.5782 5.97088 30.3808C6.69288 29.8598 9.03194 29.1489 12.9369 28.6489C19.9723 27.8442 27.0765 27.8442 34.1119 28.6489C38.0119 29.1489 40.357 29.8598 41.077 30.3808C40.7663 30.5796 40.4321 30.739 40.082 30.855C37.78 31.704 32.2359 32.7168 23.5279 32.7168ZM2.28093 13.0687C2.2698 12.5946 2.40025 12.128 2.65557 11.7284C2.91089 11.3287 3.27952 11.014 3.71441 10.8248C4.14929 10.6356 4.63063 10.5802 5.0971 10.6658C5.56356 10.7515 5.99399 10.9744 6.3333 11.3057C6.67262 11.6371 6.90543 12.0619 7.00213 12.5262C7.09882 12.9905 7.05498 13.4732 6.87615 13.9125C6.69732 14.3517 6.3916 14.7278 5.9981 14.9925C5.6046 15.2573 5.14119 15.3987 4.66692 15.3988C4.04176 15.4055 3.43941 15.164 2.99212 14.7272C2.54482 14.2904 2.28911 13.6938 2.28093 13.0687ZM42.3939 15.3988C41.9359 15.3876 41.4914 15.2415 41.116 14.9789C40.7406 14.7163 40.451 14.3488 40.2834 13.9225C40.1158 13.4961 40.0777 13.0298 40.1738 12.5819C40.2699 12.1339 40.496 11.7242 40.8238 11.4041C41.1516 11.0841 41.5665 10.8678 42.0165 10.7823C42.4666 10.6968 42.9319 10.746 43.3542 10.9237C43.7765 11.1013 44.137 11.3998 44.3906 11.7813C44.6442 12.1629 44.7796 12.6106 44.78 13.0687C44.7713 13.6936 44.5153 14.2896 44.0681 14.7262C43.6209 15.1627 43.0188 15.4042 42.3939 15.3978V15.3988Z" fill="#F16D7F"/>
</svg>
