<svg width="40" height="40" viewBox="0 0 40 40" fill="none" xmlns="http://www.w3.org/2000/svg">
<path d="M19.994 37.0242L16.523 39.9241L14.235 36.0041L9.99498 37.5161L9.17296 33.0361L4.67999 32.9912L5.41198 28.4911L1.20398 26.891L3.414 22.9252L0 19.9601L3.41198 16.993L1.20202 13.0279L5.411 11.428L4.67797 6.9329L9.17198 6.88896L9.994 2.40895L14.234 3.91995L16.5219 0L19.993 2.89992L23.464 0L25.753 3.92092L29.9929 2.40895L30.814 6.88993L35.3079 6.93486L34.5759 11.43L38.7839 13.0301L36.5739 16.996L39.986 19.9611L36.5739 22.9281L38.783 26.8942L34.5739 28.4941L35.307 32.9882L30.812 33.0332L29.991 37.5141L25.753 36.0031L23.464 39.9231L19.994 37.0242ZM21.2 35.5412L22.961 37.0122L24.122 35.0222L24.914 33.6662L26.382 34.1892L28.533 34.9572L28.95 32.684L29.2349 31.1291L30.796 31.1132L33.078 31.0922L32.7059 28.81L32.452 27.2502L33.911 26.6962L36.0449 25.883L34.9249 23.8732L34.1589 22.4982L35.3419 21.4711L37.0759 19.9611L35.343 18.4611L34.1599 17.432L34.926 16.056L36.0469 14.045L33.913 13.234L32.4539 12.681L32.7089 11.1209L33.0809 8.8399L30.799 8.81695L29.239 8.80108L28.9539 7.24687L28.538 4.97391L26.3859 5.741L24.918 6.26395L24.125 4.90701L22.963 2.91701L21.201 4.38797L19.9959 5.39286L18.791 4.38797L17.03 2.91701L15.869 4.90604L15.077 6.26298L13.608 5.74003L11.458 4.97195L11.04 7.24589L10.755 8.8001L9.19499 8.81597L6.91399 8.83794L7.286 11.1199L7.53997 12.6781L6.08098 13.233L3.94598 14.044L5.06701 16.055L5.833 17.43L4.65002 18.4591L2.91601 19.9672L4.64898 21.474L5.83196 22.5031L5.06597 23.8781L3.945 25.8881L6.07799 26.6982L7.53801 27.2531L7.28301 28.8122L6.91198 31.0961L9.19298 31.1191L10.753 31.1352L11.038 32.6901L11.455 34.9621L13.607 34.195L15.076 33.6721L15.868 35.029L17.03 37.0193L18.791 35.5481L19.9959 34.5432L21.2 35.5412ZM21.318 23.0202C21.318 20.0931 22.8829 18.465 24.7769 18.465C26.7829 18.465 28.077 20.028 28.077 22.7951C28.077 25.8541 26.4919 27.372 24.6619 27.372C22.883 27.372 21.338 25.9222 21.318 23.0202ZM22.839 22.932C22.816 24.783 23.521 26.1901 24.711 26.1901C25.988 26.1901 26.5609 24.805 26.5609 22.89C26.5609 21.125 26.054 19.653 24.711 19.653C23.5 19.649 22.839 21.103 22.839 22.931V22.932ZM15.1939 27.3322L23.609 12.6131H24.8419L16.427 27.3322H15.1939ZM11.979 16.9901C11.979 14.0901 13.542 12.4581 15.437 12.4581C17.437 12.4581 18.763 14.0221 18.763 16.7901C18.763 19.8482 17.177 21.3651 15.327 21.3651C13.544 21.3651 12 19.9151 11.979 16.9911V16.9901ZM13.521 16.9239C13.477 18.7749 14.162 20.181 15.3709 20.183C16.6479 20.183 17.221 18.7989 17.221 16.8829C17.221 15.1169 16.7139 13.6451 15.3709 13.6451C14.162 13.6421 13.521 15.0921 13.521 16.9252V16.9239Z" fill="#F16D7F"/>
</svg>
