<svg width="33" height="29" viewBox="0 0 33 29" fill="none" xmlns="http://www.w3.org/2000/svg">
<path d="M27.199 29C26.5513 28.9738 25.9396 28.6948 25.4953 28.2227C25.051 27.7506 24.8095 27.1232 24.8225 26.475C24.8356 25.8269 25.1023 25.2097 25.5653 24.7559C26.0284 24.3022 26.6508 24.048 27.2991 24.048C27.9474 24.048 28.5697 24.3022 29.0328 24.7559C29.4958 25.2097 29.7625 25.8269 29.7756 26.475C29.7886 27.1232 29.5471 27.7506 29.1028 28.2227C28.6585 28.6948 28.0468 28.9738 27.3991 29H27.199ZM7.75099 26.32C7.75099 25.79 7.90817 25.2718 8.20265 24.8311C8.49713 24.3904 8.9157 24.0469 9.40541 23.844C9.89511 23.6412 10.434 23.5881 10.9539 23.6915C11.4737 23.7949 11.9513 24.0502 12.3261 24.425C12.7009 24.7998 12.9562 25.2773 13.0596 25.7972C13.163 26.317 13.1098 26.8559 12.907 27.3456C12.7042 27.8353 12.3607 28.2539 11.9199 28.5484C11.4792 28.8428 10.9611 29 10.431 29C10.0789 29.0003 9.73018 28.9312 9.4048 28.7966C9.07941 28.662 8.78375 28.4647 8.53468 28.2158C8.28561 27.9669 8.08807 27.6714 7.95326 27.3461C7.81845 27.0208 7.74903 26.6721 7.74903 26.32H7.75099ZM11.551 20.686C11.2916 20.6868 11.039 20.6024 10.8322 20.4457C10.6253 20.2891 10.4756 20.0689 10.406 19.819L5.57301 2.36401H2.18006C1.86657 2.36401 1.56591 2.23947 1.34424 2.01781C1.12257 1.79614 0.998047 1.49549 0.998047 1.18201C0.998047 0.868519 1.12257 0.567873 1.34424 0.346205C1.56591 0.124537 1.86657 5.81268e-06 2.18006 5.81268e-06H6.46107C6.72056 -0.00080736 6.9731 0.0837201 7.17982 0.240568C7.38654 0.397417 7.5359 0.617884 7.60499 0.868006L12.438 18.323H25.616L29.9991 8.27501H15.3991C15.2409 8.27961 15.0834 8.25243 14.9359 8.19507C14.7884 8.13771 14.6539 8.05135 14.5404 7.94109C14.4269 7.83083 14.3367 7.69891 14.275 7.55315C14.2134 7.4074 14.1817 7.25076 14.1817 7.09251C14.1817 6.93426 14.2134 6.77762 14.275 6.63186C14.3367 6.4861 14.4269 6.35419 14.5404 6.24393C14.6539 6.13367 14.7884 6.0473 14.9359 5.98995C15.0834 5.93259 15.2409 5.90541 15.3991 5.91001H31.8121C32.0077 5.90996 32.2003 5.95867 32.3725 6.05172C32.5446 6.14478 32.6909 6.27926 32.798 6.44301C32.9059 6.60729 32.9715 6.7957 32.9889 6.99145C33.0064 7.18721 32.9752 7.38424 32.8981 7.56501L27.4931 19.977C27.4007 20.1876 27.249 20.3668 27.0566 20.4927C26.8641 20.6186 26.6391 20.6858 26.4091 20.686H11.551Z" fill="#E8E8E8"/>
</svg>
